<svg width="500" height="450" viewBox="100 0 560 450" fill="none" xmlns="http://www.w3.org/2000/svg">
<mask id="mask0" style="mask-type:luminance" maskUnits="userSpaceOnUse" x="111" y="7" width="435" height="434">
<path d="M520.51 7.08808L111.948 31.6493L136.52 440.032L545.082 415.471L520.51 7.08808Z" fill="white"/>
</mask>
<g mask="url(#mask0)">
<path d="M496.19 170.786C494.952 150.214 494.846 148.72 493.682 129.097L487.487 26.1505C486.954 17.2853 479.719 10.3256 470.857 10.1241C462.058 9.83332 454.449 16.5582 453.51 25.3754C449.277 65.4716 395.126 82.9354 345.86 85.8972L209.673 94.0842C158.041 97.1881 118.57 141.691 121.675 193.3C123.366 221.394 137.346 245.896 158.058 261.882L220.128 401.311C225.563 413.827 235.576 423.506 248.281 428.514C255.335 431.301 262.75 432.46 270.087 432.02C275.995 431.664 281.839 430.271 287.434 427.851C299.955 422.42 309.638 412.411 314.649 399.712C319.659 386.995 319.42 373.108 313.988 360.609L278.201 277.817L357.123 273.073C406.388 270.111 462.241 280.945 471.253 320.261C473.129 328.432 480.638 333.957 488.877 333.462C489.353 333.433 489.829 333.404 490.286 333.326C499.077 332.063 505.41 324.287 504.876 315.422L498.681 212.476C497.437 191.791 497.429 191.375 496.19 170.786ZM211.721 128.116L237.188 126.585L243.844 245.727L218.904 247.226C186.049 249.201 157.715 224.094 155.739 191.253C153.763 158.412 178.866 130.092 211.721 128.116ZM282.699 374.154C284.505 378.314 284.596 382.954 282.92 387.188C281.244 391.421 278.029 394.757 273.85 396.579C269.688 398.401 265.044 398.475 260.809 396.8C256.574 395.124 253.237 391.909 251.355 387.6L203.784 280.736C209.379 281.424 215.114 281.627 220.936 281.277L241.994 280.01L282.701 374.171L282.699 374.154ZM467.466 261.298C441.031 244.188 402.4 236.195 355.075 239.041L277.874 243.681L271.217 124.539L347.891 119.93C395.216 117.085 432.611 104.522 456.804 84.368L467.448 261.283L467.466 261.298Z" fill="#3E68DD"/>
</g>
<mask id="mask1" style="mask-type:luminance" maskUnits="userSpaceOnUse" x="527" y="112" width="126" height="126">
<path d="M645.185 112.453L527.085 119.553L534.188 237.601L652.288 230.502L645.185 112.453Z" fill="white"/>
</mask>
<g mask="url(#mask1)">
<path d="M613.47 118.887C607.934 119.306 602.607 121.177 598.026 124.314C593.446 127.45 589.774 131.737 587.382 136.745C584.407 132.06 580.247 128.242 575.323 125.678C570.401 123.114 564.888 121.893 559.341 122.14C550.531 123.056 542.441 127.418 536.839 134.276C531.236 141.133 528.577 149.929 529.442 158.741C531.447 192.065 587.675 227.312 590.066 228.807L593.032 230.648L595.755 228.465C597.95 226.704 649.547 184.964 647.541 151.64C647.343 142.789 643.649 134.375 637.265 128.239C630.881 122.101 622.326 118.739 613.47 118.887Z" fill="#3E68DD"/>
</g>
</svg>
