<svg width="777" height="653" viewBox="0 0 777 653" fill="none" xmlns="http://www.w3.org/2000/svg">
<g clip-path="url(#clip0_157_846)">
<path d="M42.0556 609.946C37.0964 609.946 33.257 608.588 30.5376 605.869C27.9779 602.991 26.6982 599.073 26.6982 594.116V452.603C26.6982 447.485 27.9779 443.648 30.5376 441.09C33.257 438.371 37.0964 437.012 42.0556 437.012C47.0147 437.012 50.774 438.371 53.3336 441.09C56.0531 443.648 57.4129 447.485 57.4129 452.603V513.765H57.8928L126.761 444.687C129.32 442.129 131.881 440.211 134.44 438.931C136.999 437.651 139.878 437.012 143.078 437.012C147.718 437.012 150.997 438.211 152.917 440.61C154.996 443.009 155.796 445.806 155.316 449.005C154.996 452.203 153.477 455.161 150.757 457.879L80.6889 527.197L80.9289 513.285L154.116 587.64C157.476 590.838 159.236 594.196 159.395 597.714C159.555 601.231 158.436 604.19 156.036 606.588C153.796 608.827 150.437 609.946 145.958 609.946C142.118 609.946 138.999 609.146 136.599 607.548C134.359 605.949 131.72 603.63 128.681 600.592L57.8928 529.835H57.4129V594.116C57.4129 599.073 56.1331 602.991 53.5736 605.869C51.014 608.588 47.1746 609.946 42.0556 609.946ZM233.385 610.426C220.107 610.426 208.67 607.947 199.071 602.991C189.473 598.034 182.034 590.998 176.755 581.883C171.636 572.769 169.077 561.976 169.077 549.503C169.077 537.351 171.555 526.717 176.515 517.603C181.634 508.488 188.592 501.373 197.392 496.256C206.349 490.979 216.508 488.341 227.866 488.341C236.185 488.341 243.623 489.7 250.183 492.418C256.901 495.137 262.58 499.054 267.22 504.171C272.019 509.288 275.618 515.525 278.018 522.88C280.577 530.075 281.857 538.23 281.857 547.345C281.857 550.223 280.817 552.462 278.738 554.061C276.818 555.5 274.018 556.219 270.339 556.219H193.312V538.95H260.741L256.901 542.548C256.901 535.192 255.781 529.035 253.542 524.079C251.461 519.122 248.342 515.364 244.184 512.806C240.183 510.087 235.144 508.728 229.066 508.728C222.347 508.728 216.588 510.327 211.789 513.525C207.15 516.563 203.55 520.961 200.991 526.717C198.591 532.314 197.392 539.03 197.392 546.865V548.544C197.392 561.655 200.431 571.489 206.51 578.046C212.749 584.442 221.867 587.64 233.865 587.64C238.024 587.64 242.663 587.16 247.783 586.201C253.062 585.082 258.021 583.242 262.66 580.684C266.02 578.765 268.978 577.965 271.539 578.286C274.098 578.445 276.098 579.325 277.538 580.924C279.137 582.523 280.097 584.522 280.417 586.92C280.736 589.159 280.257 591.478 278.978 593.876C277.857 596.275 275.858 598.353 272.979 600.112C267.379 603.63 260.9 606.268 253.542 608.027C246.343 609.626 239.624 610.426 233.385 610.426ZM358.641 610.426C345.363 610.426 333.926 607.947 324.327 602.991C314.729 598.034 307.29 590.998 302.011 581.883C296.892 572.769 294.332 561.976 294.332 549.503C294.332 537.351 296.812 526.717 301.771 517.603C306.891 508.488 313.85 501.373 322.648 496.256C331.606 490.979 341.764 488.341 353.122 488.341C361.44 488.341 368.879 489.7 375.438 492.418C382.157 495.137 387.836 499.054 392.475 504.171C397.275 509.288 400.874 515.525 403.274 522.88C405.833 530.075 407.113 538.23 407.113 547.345C407.113 550.223 406.073 552.462 403.994 554.061C402.074 555.5 399.275 556.219 395.595 556.219H318.568V538.95H385.997L382.157 542.548C382.157 535.192 381.038 529.035 378.798 524.079C376.719 519.122 373.599 515.364 369.44 512.806C365.441 510.087 360.401 508.728 354.322 508.728C347.603 508.728 341.844 510.327 337.045 513.525C332.406 516.563 328.806 520.961 326.247 526.717C323.847 532.314 322.648 539.03 322.648 546.865V548.544C322.648 561.655 325.687 571.489 331.766 578.046C338.005 584.442 347.123 587.64 359.121 587.64C363.281 587.64 367.919 587.16 373.039 586.201C378.318 585.082 383.277 583.242 387.916 580.684C391.276 578.765 394.236 577.965 396.795 578.286C399.354 578.445 401.354 579.325 402.794 580.924C404.393 582.523 405.353 584.522 405.673 586.92C405.994 589.159 405.514 591.478 404.233 593.876C403.114 596.275 401.114 598.353 398.235 600.112C392.635 603.63 386.156 606.268 378.798 608.027C371.599 609.626 364.88 610.426 358.641 610.426ZM440.946 653.12C436.147 653.12 432.467 651.84 429.908 649.282C427.347 646.724 426.068 642.966 426.068 638.009V503.931C426.068 498.975 427.347 495.216 429.908 492.658C432.467 490.1 436.066 488.82 440.706 488.82C445.505 488.82 449.184 490.1 451.744 492.658C454.303 495.216 455.583 498.975 455.583 503.931V522.64L452.944 515.444C455.343 507.289 460.222 500.733 467.581 495.776C475.099 490.82 483.818 488.341 493.737 488.341C503.975 488.341 512.933 490.82 520.612 495.776C528.45 500.733 534.53 507.769 538.849 516.883C543.168 525.838 545.328 536.632 545.328 549.263C545.328 561.736 543.168 572.61 538.849 581.883C534.53 590.998 528.531 598.034 520.852 602.991C513.173 607.947 504.134 610.426 493.737 610.426C483.978 610.426 475.42 608.027 468.061 603.23C460.702 598.274 455.743 591.877 453.184 584.042H456.063V638.009C456.063 642.966 454.703 646.724 451.984 649.282C449.424 651.84 445.745 653.12 440.946 653.12ZM485.338 587.64C491.257 587.64 496.456 586.201 500.936 583.323C505.414 580.444 508.854 576.207 511.254 570.61C513.813 564.854 515.093 557.739 515.093 549.263C515.093 536.471 512.373 526.957 506.935 520.721C501.495 514.325 494.296 511.127 485.338 511.127C479.418 511.127 474.22 512.566 469.741 515.444C465.261 518.163 461.742 522.4 459.183 528.156C456.783 533.753 455.583 540.788 455.583 549.263C455.583 561.895 458.302 571.489 463.742 578.046C469.181 584.442 476.379 587.64 485.338 587.64ZM622.98 610.426C609.703 610.426 598.264 607.947 588.666 602.991C579.067 598.034 571.629 590.998 566.349 581.883C561.231 572.769 558.671 561.976 558.671 549.503C558.671 537.351 561.151 526.717 566.109 517.603C571.229 508.488 578.188 501.373 586.986 496.256C595.945 490.979 606.103 488.341 617.461 488.341C625.78 488.341 633.219 489.7 639.777 492.418C646.496 495.137 652.175 499.054 656.814 504.171C661.613 509.288 665.212 515.525 667.612 522.88C670.172 530.075 671.451 538.23 671.451 547.345C671.451 550.223 670.412 552.462 668.332 554.061C666.412 555.5 663.613 556.219 659.933 556.219H582.907V538.95H650.335L646.496 542.548C646.496 535.192 645.376 529.035 643.136 524.079C641.057 519.122 637.937 515.364 633.778 512.806C629.779 510.087 624.74 508.728 618.66 508.728C611.942 508.728 606.183 510.327 601.383 513.525C596.745 516.563 593.146 520.961 590.585 526.717C588.186 532.314 586.986 539.03 586.986 546.865V548.544C586.986 561.655 590.026 571.489 596.104 578.046C602.343 584.442 611.462 587.64 623.46 587.64C627.619 587.64 632.259 587.16 637.377 586.201C642.656 585.082 647.616 583.242 652.255 580.684C655.614 578.765 658.574 577.965 661.133 578.286C663.693 578.445 665.692 579.325 667.132 580.924C668.733 582.523 669.692 584.522 670.011 586.92C670.332 589.159 669.852 591.478 668.572 593.876C667.452 596.275 665.452 598.353 662.573 600.112C656.975 603.63 650.496 606.268 643.136 608.027C635.937 609.626 629.219 610.426 622.98 610.426ZM705.764 609.946C700.804 609.946 696.965 608.667 694.246 606.109C691.686 603.39 690.407 599.552 690.407 594.596V503.931C690.407 498.975 691.686 495.216 694.246 492.658C696.805 490.1 700.405 488.82 705.044 488.82C709.683 488.82 713.282 490.1 715.842 492.658C718.402 495.216 719.682 498.975 719.682 503.931V519.042H717.282C719.521 509.448 723.921 502.172 730.48 497.215C737.038 492.259 745.757 489.3 756.635 488.341C759.995 488.021 762.634 488.901 764.554 490.979C766.633 492.898 767.833 495.936 768.153 500.094C768.472 504.091 767.513 507.37 765.274 509.928C763.193 512.326 759.995 513.765 755.676 514.245L750.396 514.725C740.637 515.684 733.279 518.722 728.32 523.839C723.36 528.796 720.882 535.832 720.882 544.946V594.596C720.882 599.552 719.601 603.39 717.042 606.109C714.482 608.667 710.723 609.946 705.764 609.946Z" fill="#3E68DD"/>
<mask id="mask0_157_846" style="mask-type:luminance" maskUnits="userSpaceOnUse" x="111" y="7" width="435" height="434">
<path d="M520.51 7.08808L111.948 31.6493L136.52 440.032L545.082 415.471L520.51 7.08808Z" fill="white"/>
</mask>
<g mask="url(#mask0_157_846)">
<path d="M496.19 170.786C494.952 150.214 494.846 148.72 493.682 129.097L487.487 26.1505C486.954 17.2853 479.719 10.3256 470.857 10.1241C462.058 9.83332 454.449 16.5582 453.51 25.3754C449.277 65.4716 395.126 82.9354 345.86 85.8972L209.673 94.0842C158.041 97.1881 118.57 141.691 121.675 193.3C123.366 221.394 137.346 245.896 158.058 261.882L220.128 401.311C225.563 413.827 235.576 423.506 248.281 428.514C255.335 431.301 262.75 432.46 270.087 432.02C275.995 431.664 281.839 430.271 287.434 427.851C299.955 422.42 309.638 412.411 314.649 399.712C319.659 386.995 319.42 373.108 313.988 360.609L278.201 277.817L357.123 273.073C406.388 270.111 462.241 280.945 471.253 320.261C473.129 328.432 480.638 333.957 488.877 333.462C489.353 333.433 489.829 333.404 490.286 333.326C499.077 332.063 505.41 324.287 504.876 315.422L498.681 212.476C497.437 191.791 497.429 191.375 496.19 170.786ZM211.721 128.116L237.188 126.585L243.844 245.727L218.904 247.226C186.049 249.201 157.715 224.094 155.739 191.253C153.763 158.412 178.866 130.092 211.721 128.116ZM282.699 374.154C284.505 378.314 284.596 382.954 282.92 387.188C281.244 391.421 278.029 394.757 273.85 396.579C269.688 398.401 265.044 398.475 260.809 396.8C256.574 395.124 253.237 391.909 251.355 387.6L203.784 280.736C209.379 281.424 215.114 281.627 220.936 281.277L241.994 280.01L282.701 374.171L282.699 374.154ZM467.466 261.298C441.031 244.188 402.4 236.195 355.075 239.041L277.874 243.681L271.217 124.539L347.891 119.93C395.216 117.085 432.611 104.522 456.804 84.368L467.448 261.283L467.466 261.298Z" fill="#3E68DD"/>
<path d="M496.19 170.786C494.952 150.214 494.846 148.72 493.682 129.097L487.487 26.1505C486.954 17.2853 479.719 10.3256 470.857 10.1241C462.058 9.83332 454.449 16.5582 453.51 25.3754C449.277 65.4716 395.126 82.9354 345.86 85.8972L209.673 94.0842C158.041 97.1881 118.57 141.691 121.675 193.3C123.366 221.394 137.346 245.896 158.058 261.882L220.128 401.311C225.563 413.827 235.576 423.506 248.281 428.514C255.335 431.301 262.75 432.46 270.087 432.02C275.995 431.664 281.839 430.271 287.434 427.851C299.955 422.42 309.638 412.411 314.649 399.712C319.659 386.995 319.42 373.108 313.988 360.609L278.201 277.817L357.123 273.073C406.388 270.111 462.241 280.945 471.253 320.261C473.129 328.432 480.638 333.957 488.877 333.462C489.353 333.433 489.829 333.404 490.286 333.326C499.077 332.063 505.41 324.287 504.876 315.422L498.681 212.476C497.437 191.791 497.429 191.375 496.19 170.786ZM211.721 128.116L237.188 126.585L243.844 245.727L218.904 247.226C186.049 249.201 157.715 224.094 155.739 191.253C153.763 158.412 178.866 130.092 211.721 128.116ZM282.699 374.154C284.505 378.314 284.596 382.954 282.92 387.188C281.244 391.421 278.029 394.757 273.85 396.579C269.688 398.401 265.044 398.475 260.809 396.8C256.574 395.124 253.237 391.909 251.355 387.6L203.784 280.736C209.379 281.424 215.114 281.627 220.936 281.277L241.994 280.01L282.701 374.171L282.699 374.154ZM467.466 261.298C441.031 244.188 402.4 236.195 355.075 239.041L277.874 243.681L271.217 124.539L347.891 119.93C395.216 117.085 432.611 104.522 456.804 84.368L467.448 261.283L467.466 261.298Z" fill="#3E68DD"/>
</g>
<mask id="mask1_157_846" style="mask-type:luminance" maskUnits="userSpaceOnUse" x="527" y="112" width="126" height="126">
<path d="M645.185 112.453L527.085 119.553L534.188 237.601L652.288 230.502L645.185 112.453Z" fill="white"/>
</mask>
<g mask="url(#mask1_157_846)">
<path d="M613.47 118.887C607.934 119.306 602.607 121.177 598.026 124.314C593.446 127.45 589.774 131.737 587.382 136.745C584.407 132.06 580.247 128.242 575.323 125.678C570.401 123.114 564.888 121.893 559.341 122.14C550.531 123.056 542.441 127.418 536.839 134.276C531.236 141.133 528.577 149.929 529.442 158.741C531.447 192.065 587.675 227.312 590.066 228.807L593.032 230.648L595.755 228.465C597.95 226.704 649.547 184.964 647.541 151.64C647.343 142.789 643.649 134.375 637.265 128.239C630.881 122.101 622.326 118.739 613.47 118.887Z" fill="#3E68DD"/>
</g>
</g>
<defs>
<clipPath id="clip0_157_846">
<rect width="777" height="653" fill="white"/>
</clipPath>
</defs>
</svg>
